<?xml version="1.0" encoding="UTF-8"?>
<!DOCTYPE svg PUBLIC "-//W3C//DTD SVG 1.1//EN" "http://www.w3.org/Graphics/SVG/1.1/DTD/svg11.dtd">
<svg xmlns="http://www.w3.org/2000/svg" version="1.1" width="500px" height="158px" style="shape-rendering:geometricPrecision; text-rendering:geometricPrecision; image-rendering:optimizeQuality; fill-rule:evenodd; clip-rule:evenodd" xmlns:xlink="http://www.w3.org/1999/xlink">
<g><path style="opacity:1" fill="#fdfefd" d="M -0.5,-0.5 C 166.167,-0.5 332.833,-0.5 499.5,-0.5C 499.5,52.1667 499.5,104.833 499.5,157.5C 332.833,157.5 166.167,157.5 -0.5,157.5C -0.5,104.833 -0.5,52.1667 -0.5,-0.5 Z"/></g>
<g><path style="opacity:1" fill="#a5b2e5" d="M 154.5,7.5 C 107.239,6.50524 59.9053,6.17191 12.5,6.5C 12.5,8.16667 12.5,9.83333 12.5,11.5C 11.2616,9.7857 10.595,7.7857 10.5,5.5C 58.8449,4.83811 106.845,5.50478 154.5,7.5 Z"/></g>
<g><path style="opacity:1" fill="#9db2f9" d="M 154.5,7.5 C 157.862,15.9155 160.862,24.5822 163.5,33.5C 151.5,33.5 139.5,33.5 127.5,33.5C 127.337,35.8568 127.503,38.1902 128,40.5C 132.21,53.6129 137.043,66.6129 142.5,79.5C 146.989,93.124 151.322,106.791 155.5,120.5C 168.149,121.499 180.816,121.832 193.5,121.5C 193.833,123.5 194.167,125.5 194.5,127.5C 195.837,134.18 197.503,140.847 199.5,147.5C 152.505,148.5 105.505,148.833 58.5,148.5C 57.3316,143.711 55.9983,138.878 54.5,134C 54.4391,131.739 55.1057,129.739 56.5,128C 53.2712,127.644 51.7712,125.81 52,122.5C 50.9509,120.382 49.4509,118.716 47.5,117.5C 35.5291,82.2898 23.8625,46.9565 12.5,11.5C 12.5,9.83333 12.5,8.16667 12.5,6.5C 59.9053,6.17191 107.239,6.50524 154.5,7.5 Z"/></g>
<g><path style="opacity:1" fill="#60b2f8" d="M 163.5,33.5 C 180.338,34.1667 197.338,34.8333 214.5,35.5C 223.636,60.5748 231.969,85.9082 239.5,111.5C 239.873,114.574 240.539,117.574 241.5,120.5C 225.658,120.17 209.991,120.504 194.5,121.5C 194.167,121.5 193.833,121.5 193.5,121.5C 180.816,121.832 168.149,121.499 155.5,120.5C 151.322,106.791 146.989,93.124 142.5,79.5C 137.043,66.6129 132.21,53.6129 128,40.5C 127.503,38.1902 127.337,35.8568 127.5,33.5C 139.5,33.5 151.5,33.5 163.5,33.5 Z"/></g>
<g><path style="opacity:1" fill="#0b0b0b" d="M 253.5,66.5 C 267.847,63.5218 274.181,69.1885 272.5,83.5C 269.833,83.5 267.167,83.5 264.5,83.5C 264.768,80.8806 264.435,78.3806 263.5,76C 260.854,75.5026 258.187,75.3359 255.5,75.5C 255.5,79.5 255.5,83.5 255.5,87.5C 261.359,88.6187 266.859,90.6187 272,93.5C 272.667,99.8333 272.667,106.167 272,112.5C 271.06,115.773 268.893,117.606 265.5,118C 251.191,121.519 244.857,116.019 246.5,101.5C 249.5,101.5 252.5,101.5 255.5,101.5C 255.223,104.448 255.556,107.281 256.5,110C 262.324,111.674 264.991,109.507 264.5,103.5C 264.167,101.833 263.833,100.167 263.5,98.5C 257.945,96.5934 252.445,94.5934 247,92.5C 246.333,86.1667 246.333,79.8333 247,73.5C 248.018,69.9853 250.185,67.652 253.5,66.5 Z"/></g>
<g><path style="opacity:1" fill="#060606" d="M 276.5,73.5 C 279.572,73.1826 282.572,73.5159 285.5,74.5C 287.743,79.9846 290.243,85.318 293,90.5C 295.333,85.1667 297.667,79.8333 300,74.5C 302.719,73.5562 305.552,73.2229 308.5,73.5C 304.969,82.9183 301.136,92.2516 297,101.5C 296.501,107.157 296.334,112.824 296.5,118.5C 293.881,118.768 291.381,118.435 289,117.5C 288.667,111.833 288.333,106.167 288,100.5C 284.154,91.4786 280.321,82.4786 276.5,73.5 Z"/></g>
<g><path style="opacity:1" fill="#030303" d="M 322.5,94.5 C 322.44,93.9569 322.107,93.6236 321.5,93.5C 320.502,101.472 320.169,109.472 320.5,117.5C 318.393,118.468 316.059,118.802 313.5,118.5C 313.5,103.5 313.5,88.5 313.5,73.5C 315.924,73.1924 318.257,73.5258 320.5,74.5C 324.061,82.6217 327.894,90.6217 332,98.5C 332.5,90.1733 332.666,81.84 332.5,73.5C 335.167,73.5 337.833,73.5 340.5,73.5C 340.5,88.5 340.5,103.5 340.5,118.5C 338.076,118.808 335.743,118.474 333.5,117.5C 329.549,109.933 325.883,102.266 322.5,94.5 Z"/></g>
<g><path style="opacity:1" fill="#020202" d="M 352.5,73.5 C 358.29,73.0962 363.956,73.5962 369.5,75C 370.333,75.8333 371.167,76.6667 372,77.5C 372.499,81.8206 372.666,86.1539 372.5,90.5C 370.167,90.5 367.833,90.5 365.5,90.5C 367.495,82.3278 364.495,79.4945 356.5,82C 355.167,91.3333 355.167,100.667 356.5,110C 364.495,112.506 367.495,109.672 365.5,101.5C 367.833,101.5 370.167,101.5 372.5,101.5C 375.527,113.183 371.194,118.85 359.5,118.5C 354.141,119.239 350.307,117.239 348,112.5C 347.333,101.167 347.333,89.8333 348,78.5C 349.025,76.313 350.525,74.6464 352.5,73.5 Z"/></g>
<g><path style="opacity:1" fill="#101010" d="M 379.5,73.5 C 382.5,73.5 385.5,73.5 388.5,73.5C 388.5,88.5 388.5,103.5 388.5,118.5C 385.552,118.777 382.719,118.444 380,117.5C 379.5,102.837 379.333,88.1705 379.5,73.5 Z"/></g>
<g><path style="opacity:1" fill="#080808" d="M 400.5,73.5 C 406.29,73.0962 411.956,73.5962 417.5,75C 418.701,75.9025 419.535,77.0692 420,78.5C 420.498,81.8168 420.665,85.1501 420.5,88.5C 414.073,90.2382 411.406,87.9049 412.5,81.5C 409.552,81.2229 406.719,81.5562 404,82.5C 403.183,91.7447 403.35,100.911 404.5,110C 411.915,111.936 414.582,109.103 412.5,101.5C 411.167,101.5 409.833,101.5 408.5,101.5C 408.5,98.8333 408.5,96.1667 408.5,93.5C 412.5,93.5 416.5,93.5 420.5,93.5C 426.256,114.29 418.923,122.123 398.5,117C 397.299,116.097 396.465,114.931 396,113.5C 395.333,101.833 395.333,90.1667 396,78.5C 397.025,76.313 398.525,74.6464 400.5,73.5 Z"/></g>
<g><path style="opacity:1" fill="#0f0f0f" d="M 427.5,73.5 C 430.5,73.5 433.5,73.5 436.5,73.5C 436.5,79.5 436.5,85.5 436.5,91.5C 439.167,91.5 441.833,91.5 444.5,91.5C 444.5,85.5 444.5,79.5 444.5,73.5C 447.5,73.5 450.5,73.5 453.5,73.5C 453.667,88.1705 453.5,102.837 453,117.5C 450.333,118.833 447.667,118.833 445,117.5C 444.501,111.843 444.334,106.176 444.5,100.5C 441.833,100.5 439.167,100.5 436.5,100.5C 436.666,106.176 436.499,111.843 436,117.5C 433.333,118.833 430.667,118.833 428,117.5C 427.5,102.837 427.333,88.1705 427.5,73.5 Z"/></g>
<g><path style="opacity:1" fill="#030303" d="M 458.5,73.5 C 467.167,73.5 475.833,73.5 484.5,73.5C 484.5,76.1667 484.5,78.8333 484.5,81.5C 481.5,81.5 478.5,81.5 475.5,81.5C 475.5,93.8333 475.5,106.167 475.5,118.5C 472.833,118.5 470.167,118.5 467.5,118.5C 467.5,106.167 467.5,93.8333 467.5,81.5C 464.5,81.5 461.5,81.5 458.5,81.5C 458.5,78.8333 458.5,76.1667 458.5,73.5 Z"/></g>
<g><path style="opacity:1" fill="#929292" d="M 322.5,94.5 C 321.833,102.167 321.167,109.833 320.5,117.5C 320.169,109.472 320.502,101.472 321.5,93.5C 322.107,93.6236 322.44,93.9569 322.5,94.5 Z"/></g>
<g><path style="opacity:1" fill="#9accef" d="M 239.5,111.5 C 241.605,114.408 242.605,117.742 242.5,121.5C 226.5,121.5 210.5,121.5 194.5,121.5C 209.991,120.504 225.658,120.17 241.5,120.5C 240.539,117.574 239.873,114.574 239.5,111.5 Z"/></g>
<g><path style="opacity:1" fill="#a6b3e8" d="M 47.5,117.5 C 49.4509,118.716 50.9509,120.382 52,122.5C 51.7712,125.81 53.2712,127.644 56.5,128C 55.1057,129.739 54.4391,131.739 54.5,134C 55.9983,138.878 57.3316,143.711 58.5,148.5C 105.505,148.833 152.505,148.5 199.5,147.5C 197.503,140.847 195.837,134.18 194.5,127.5C 197.613,134.509 199.947,141.843 201.5,149.5C 153.5,149.5 105.5,149.5 57.5,149.5C 54.7512,138.664 51.4179,127.998 47.5,117.5 Z"/></g>
</svg>
