<?xml version="1.0" encoding="UTF-8"?>
<!DOCTYPE svg PUBLIC "-//W3C//DTD SVG 1.1//EN" "http://www.w3.org/Graphics/SVG/1.1/DTD/svg11.dtd">
<svg xmlns="http://www.w3.org/2000/svg" version="1.1" width="500px" height="200px" style="shape-rendering:geometricPrecision; text-rendering:geometricPrecision; image-rendering:optimizeQuality; fill-rule:evenodd; clip-rule:evenodd" xmlns:xlink="http://www.w3.org/1999/xlink">
<g><path style="opacity:1" fill="none" d="M -0.5,-0.5 C 166.167,-0.5 332.833,-0.5 499.5,-0.5C 499.5,166.167 499.5,332.833 499.5,499.5C 332.833,499.5 166.167,499.5 -0.5,499.5C -0.5,332.833 -0.5,166.167 -0.5,-0.5 Z"/></g>
<g><path style="opacity:1" fill="#e5ebff" d="M 154.5,172.5 C 106.155,171.838 58.1551,172.505 10.5,174.5C 9.59603,173.791 9.26269,172.791 9.5,171.5C 58.0029,171.168 106.336,171.501 154.5,172.5 Z"/></g>
<g><path style="opacity:1" fill="#99b3ff" d="M 154.5,172.5 C 157.898,181.695 160.898,191.028 163.5,200.5C 151.149,200.168 138.815,200.501 126.5,201.5C 136.167,230.167 145.833,258.833 155.5,287.5C 167.815,288.499 180.149,288.832 192.5,288.5C 192.833,288.5 193.167,288.5 193.5,288.5C 196.295,297.55 199.295,306.55 202.5,315.5C 154.171,316.5 105.838,316.833 57.5,316.5C 42.231,269.026 26.5643,221.693 10.5,174.5C 58.1551,172.505 106.155,171.838 154.5,172.5 Z"/></g>
<g><path style="opacity:1" fill="#3ab6ff" d="M 163.5,200.5 C 180.513,200.167 197.513,200.501 214.5,201.5C 224.241,229.721 233.574,258.055 242.5,286.5C 225.833,287.167 209.167,287.833 192.5,288.5C 180.149,288.832 167.815,288.499 155.5,287.5C 145.833,258.833 136.167,230.167 126.5,201.5C 138.815,200.501 151.149,200.168 163.5,200.5 Z"/></g>
<g><path style="opacity:1" fill="#6bc8ff" d="M 242.5,286.5 C 243.043,286.56 243.376,286.893 243.5,287.5C 226.847,288.499 210.18,288.833 193.5,288.5C 193.167,288.5 192.833,288.5 192.5,288.5C 209.167,287.833 225.833,287.167 242.5,286.5 Z"/></g>
</svg>
