<?xml version="1.0" encoding="UTF-8"?>
<!DOCTYPE svg PUBLIC "-//W3C//DTD SVG 1.1//EN" "http://www.w3.org/Graphics/SVG/1.1/DTD/svg11.dtd">
<svg xmlns="http://www.w3.org/2000/svg" version="1.1" width="500px" height="500px" style="shape-rendering:geometricPrecision; text-rendering:geometricPrecision; image-rendering:optimizeQuality; fill-rule:evenodd; clip-rule:evenodd" xmlns:xlink="http://www.w3.org/1999/xlink">
<g><path style="opacity:0.245" fill="#e6ecff" d="M 154.5,172.5 C 106.155,171.838 58.1551,172.505 10.5,174.5C 9.59603,173.791 9.26269,172.791 9.5,171.5C 58.0029,171.168 106.336,171.501 154.5,172.5 Z"/></g>
<g><path style="opacity:1" fill="#9ab3ff" d="M 154.5,172.5 C 158.256,181.166 161.256,190.166 163.5,199.5C 163.5,199.833 163.5,200.167 163.5,200.5C 151.149,200.168 138.815,200.501 126.5,201.5C 136.167,230.167 145.833,258.833 155.5,287.5C 167.815,288.499 180.149,288.832 192.5,288.5C 193.167,288.5 193.833,288.5 194.5,288.5C 197.167,298.167 199.833,307.833 202.5,317.5C 154.166,317.667 105.832,317.5 57.5,317C 41.1277,269.717 25.4611,222.217 10.5,174.5C 58.1551,172.505 106.155,171.838 154.5,172.5 Z"/></g>
<g><path style="opacity:0.576" fill="#8fd5ff" d="M 163.5,199.5 C 180.598,200.153 197.598,200.82 214.5,201.5C 197.325,201.83 180.325,201.497 163.5,200.5C 163.5,200.167 163.5,199.833 163.5,199.5 Z"/></g>
<g><path style="opacity:1" fill="#3ab6ff" d="M 163.5,200.5 C 180.325,201.497 197.325,201.83 214.5,201.5C 224.801,229.069 234.134,257.069 242.5,285.5C 226.025,287.162 209.358,288.162 192.5,288.5C 180.149,288.832 167.815,288.499 155.5,287.5C 145.833,258.833 136.167,230.167 126.5,201.5C 138.815,200.501 151.149,200.168 163.5,200.5 Z"/></g>
<g><path style="opacity:1" fill="#181818" d="M 272.5,250.5 C 269.833,250.5 267.167,250.5 264.5,250.5C 264.802,247.941 264.468,245.607 263.5,243.5C 261.167,242.167 258.833,242.167 256.5,243.5C 255.518,246.962 255.185,250.629 255.5,254.5C 256.5,254.5 257.5,254.5 258.5,254.5C 263.946,255.253 268.78,257.253 273,260.5C 273.667,266.5 273.667,272.5 273,278.5C 272.594,281.494 271.094,283.661 268.5,285C 251.604,290.579 244.271,284.746 246.5,267.5C 254.476,265.633 257.81,268.633 256.5,276.5C 257.449,277.152 258.615,277.486 260,277.5C 261.681,277.392 262.848,276.725 263.5,275.5C 264.16,274.036 264.493,272.369 264.5,270.5C 264.444,268.36 263.777,266.694 262.5,265.5C 258.031,264.565 253.697,263.232 249.5,261.5C 249.217,260.711 248.717,260.044 248,259.5C 247.5,252.508 247.334,245.508 247.5,238.5C 247.916,236.248 249.249,234.748 251.5,234C 257.167,233.333 262.833,233.333 268.5,234C 271.108,235.378 272.608,237.545 273,240.5C 273.808,244.027 273.641,247.36 272.5,250.5 Z"/></g>
<g><path style="opacity:0.359" fill="#b0b0b0" d="M 300.5,240.5 C 303.287,239.523 306.287,239.19 309.5,239.5C 309.768,241.099 309.434,242.432 308.5,243.5C 308.5,242.5 308.5,241.5 308.5,240.5C 305.833,240.5 303.167,240.5 300.5,240.5 Z"/></g>
<g><path style="opacity:1" fill="#1f1f1f" d="M 291.5,254.5 C 292.032,257.46 292.699,257.793 293.5,255.5C 295.27,250.167 297.603,245.167 300.5,240.5C 303.167,240.5 305.833,240.5 308.5,240.5C 308.5,241.5 308.5,242.5 308.5,243.5C 305.012,251.812 301.512,260.145 298,268.5C 297.501,274.157 297.334,279.824 297.5,285.5C 294.223,285.784 291.057,285.451 288,284.5C 287.667,278.5 287.333,272.5 287,266.5C 283.021,258.044 279.188,249.544 275.5,241C 278.633,239.43 281.967,239.097 285.5,240C 287.918,244.668 289.918,249.501 291.5,254.5 Z"/></g>
<g><path style="opacity:1" fill="#171717" d="M 322.5,262.5 C 322.631,261.624 322.298,260.957 321.5,260.5C 320.502,268.807 320.169,277.14 320.5,285.5C 318.167,285.5 315.833,285.5 313.5,285.5C 313.5,270.5 313.5,255.5 313.5,240.5C 315.833,240.5 318.167,240.5 320.5,240.5C 324.32,248.14 328.153,255.807 332,263.5C 332.5,255.507 332.666,247.507 332.5,239.5C 335.448,239.223 338.281,239.556 341,240.5C 341.5,255.496 341.667,270.496 341.5,285.5C 338.428,285.817 335.428,285.484 332.5,284.5C 328.601,277.372 325.267,270.039 322.5,262.5 Z"/></g>
<g><path style="opacity:1" fill="#1d1d1d" d="M 364.5,276.5 C 365.473,274.052 365.806,271.385 365.5,268.5C 367.833,268.5 370.167,268.5 372.5,268.5C 372.5,272.5 372.5,276.5 372.5,280.5C 372.141,282.371 371.141,283.871 369.5,285C 363.319,285.819 357.319,285.653 351.5,284.5C 351.027,283.094 350.027,282.427 348.5,282.5C 347.91,281.234 347.41,279.901 347,278.5C 346.833,273.167 346.667,267.833 346.5,262.5C 342.775,241.886 350.775,234.886 370.5,241.5C 371.333,242.5 372.167,243.5 373,244.5C 373.499,248.821 373.666,253.154 373.5,257.5C 370.5,257.5 367.5,257.5 364.5,257.5C 364.5,254.833 364.5,252.167 364.5,249.5C 361.833,249.5 359.167,249.5 356.5,249.5C 356.5,258.5 356.5,267.5 356.5,276.5C 359.167,276.5 361.833,276.5 364.5,276.5 Z"/></g>
<g><path style="opacity:1" fill="#191919" d="M 388.5,240.5 C 389.661,254.994 389.828,269.661 389,284.5C 386.281,285.444 383.448,285.777 380.5,285.5C 380.5,270.5 380.5,255.5 380.5,240.5C 383.167,240.5 385.833,240.5 388.5,240.5 Z"/></g>
<g><path style="opacity:1" fill="#1a1a1a" d="M 420.5,245.5 C 420.5,248.5 420.5,251.5 420.5,254.5C 418.167,254.5 415.833,254.5 413.5,254.5C 413.923,252.219 413.256,250.552 411.5,249.5C 408.788,248.01 406.288,248.344 404,250.5C 403.198,259.245 403.364,267.912 404.5,276.5C 405.622,277.156 406.955,277.489 408.5,277.5C 410.333,277.415 411.666,276.748 412.5,275.5C 413.468,273.393 413.802,271.059 413.5,268.5C 411.833,268.5 410.167,268.5 408.5,268.5C 407.183,265.77 407.183,262.937 408.5,260C 412.755,259.204 416.921,259.371 421,260.5C 421.667,266.833 421.667,273.167 421,279.5C 420.727,281.329 419.893,282.829 418.5,284C 412.277,285.581 405.944,285.915 399.5,285C 397.333,284.167 395.833,282.667 395,280.5C 394.333,268.833 394.333,257.167 395,245.5C 395.94,242.227 398.107,240.394 401.5,240C 406.921,239.161 412.254,239.494 417.5,241C 419.141,242.129 420.141,243.629 420.5,245.5 Z"/></g>
<g><path style="opacity:1" fill="#131313" d="M 427.5,239.5 C 430.5,239.5 433.5,239.5 436.5,239.5C 436.5,245.833 436.5,252.167 436.5,258.5C 439.167,258.5 441.833,258.5 444.5,258.5C 444.5,252.167 444.5,245.833 444.5,239.5C 447.5,239.5 450.5,239.5 453.5,239.5C 453.5,254.833 453.5,270.167 453.5,285.5C 450.5,285.5 447.5,285.5 444.5,285.5C 444.5,279.5 444.5,273.5 444.5,267.5C 441.833,267.5 439.167,267.5 436.5,267.5C 436.5,273.5 436.5,279.5 436.5,285.5C 433.482,285.665 430.482,285.498 427.5,285C 426.978,284.439 426.645,283.772 426.5,283C 426.51,268.218 426.843,253.718 427.5,239.5 Z"/></g>
<g><path style="opacity:1" fill="#101010" d="M 484.5,248.5 C 481.5,248.5 478.5,248.5 475.5,248.5C 475.5,260.833 475.5,273.167 475.5,285.5C 472.833,285.5 470.167,285.5 467.5,285.5C 467.5,273.167 467.5,260.833 467.5,248.5C 464.5,248.5 461.5,248.5 458.5,248.5C 457.183,245.77 457.183,242.937 458.5,240C 467.16,239.5 475.827,239.334 484.5,239.5C 484.5,242.5 484.5,245.5 484.5,248.5 Z"/></g>
<g><path style="opacity:0.513" fill="#878787" d="M 320.5,240.5 C 318.167,240.5 315.833,240.5 313.5,240.5C 313.5,255.5 313.5,270.5 313.5,285.5C 312.504,270.342 312.17,255.009 312.5,239.5C 315.385,239.194 318.052,239.527 320.5,240.5 Z"/></g>
<g><path style="opacity:0.781" fill="#505050" d="M 388.5,240.5 C 385.833,240.5 383.167,240.5 380.5,240.5C 380.5,255.5 380.5,270.5 380.5,285.5C 379.504,270.342 379.17,255.009 379.5,239.5C 382.713,239.19 385.713,239.523 388.5,240.5 Z"/></g>
<g><path style="opacity:0.781" fill="#585858" d="M 247.5,238.5 C 247.334,245.508 247.5,252.508 248,259.5C 248.717,260.044 249.217,260.711 249.5,261.5C 248.504,261.586 247.671,261.252 247,260.5C 246.178,252.988 246.345,245.655 247.5,238.5 Z"/></g>
<g><path style="opacity:0.031" fill="#ececec" d="M 256.5,243.5 C 256.036,247.502 256.702,251.169 258.5,254.5C 257.5,254.5 256.5,254.5 255.5,254.5C 255.185,250.629 255.518,246.962 256.5,243.5 Z"/></g>
<g><path style="opacity:0.499" fill="#8e8e8e" d="M 458.5,248.5 C 461.5,248.5 464.5,248.5 467.5,248.5C 467.5,260.833 467.5,273.167 467.5,285.5C 466.505,273.678 466.172,261.678 466.5,249.5C 463.615,249.806 460.948,249.473 458.5,248.5 Z"/></g>
<g><path style="opacity:0.315" fill="#b4b4b4" d="M 484.5,248.5 C 482.052,249.473 479.385,249.806 476.5,249.5C 476.828,261.678 476.495,273.678 475.5,285.5C 475.5,273.167 475.5,260.833 475.5,248.5C 478.5,248.5 481.5,248.5 484.5,248.5 Z"/></g>
<g><path style="opacity:0.403" fill="#8c8c8c" d="M 263.5,243.5 C 264.468,245.607 264.802,247.941 264.5,250.5C 267.167,250.5 269.833,250.5 272.5,250.5C 269.713,251.477 266.713,251.81 263.5,251.5C 263.5,248.833 263.5,246.167 263.5,243.5 Z"/></g>
<g><path style="opacity:0.801" fill="#606060" d="M 420.5,245.5 C 421.479,248.625 421.813,251.958 421.5,255.5C 418.5,255.5 415.5,255.5 412.5,255.5C 412.675,253.379 412.341,251.379 411.5,249.5C 413.256,250.552 413.923,252.219 413.5,254.5C 415.833,254.5 418.167,254.5 420.5,254.5C 420.5,251.5 420.5,248.5 420.5,245.5 Z"/></g>
<g><path style="opacity:0.49" fill="#b5b5b5" d="M 291.5,254.5 C 292.167,254.833 292.833,255.167 293.5,255.5C 292.699,257.793 292.032,257.46 291.5,254.5 Z"/></g>
<g><path style="opacity:0.658" fill="#606060" d="M 322.5,262.5 C 321.833,270.167 321.167,277.833 320.5,285.5C 320.169,277.14 320.502,268.807 321.5,260.5C 322.298,260.957 322.631,261.624 322.5,262.5 Z"/></g>
<g><path style="opacity:0.666" fill="#5f5f5f" d="M 262.5,265.5 C 263.777,266.694 264.444,268.36 264.5,270.5C 264.493,272.369 264.16,274.036 263.5,275.5C 263.747,272.061 263.414,268.728 262.5,265.5 Z"/></g>
<g><path style="opacity:0.438" fill="#888888" d="M 372.5,280.5 C 372.5,276.5 372.5,272.5 372.5,268.5C 370.167,268.5 367.833,268.5 365.5,268.5C 365.806,271.385 365.473,274.052 364.5,276.5C 364.5,273.5 364.5,270.5 364.5,267.5C 367.5,267.5 370.5,267.5 373.5,267.5C 373.818,272.032 373.485,276.366 372.5,280.5 Z"/></g>
<g><path style="opacity:0.761" fill="#585858" d="M 408.5,268.5 C 410.167,268.5 411.833,268.5 413.5,268.5C 413.802,271.059 413.468,273.393 412.5,275.5C 412.5,273.5 412.5,271.5 412.5,269.5C 410.901,269.768 409.568,269.434 408.5,268.5 Z"/></g>
<g><path style="opacity:0.549" fill="#666666" d="M 263.5,275.5 C 262.848,276.725 261.681,277.392 260,277.5C 258.615,277.486 257.449,277.152 256.5,276.5C 258.95,276.702 261.283,276.369 263.5,275.5 Z"/></g>
<g><path style="opacity:0.362" fill="#8f8f8f" d="M 412.5,275.5 C 411.666,276.748 410.333,277.415 408.5,277.5C 406.955,277.489 405.622,277.156 404.5,276.5C 407.279,276.721 409.946,276.388 412.5,275.5 Z"/></g>
<g><path style="opacity:0.831" fill="#808080" d="M 348.5,282.5 C 350.027,282.427 351.027,283.094 351.5,284.5C 349.973,284.573 348.973,283.906 348.5,282.5 Z"/></g>
<g><path style="opacity:0.778" fill="#6fc9ff" d="M 242.5,285.5 C 243.404,286.209 243.737,287.209 243.5,288.5C 227.167,288.5 210.833,288.5 194.5,288.5C 193.833,288.5 193.167,288.5 192.5,288.5C 209.358,288.162 226.025,287.162 242.5,285.5 Z"/></g>
</svg>
